# xmcd CD database file
#
# Track frame offsets:
#	150
#	23150
#	53026
#	80996
#	104145
#	128003
#	148756
#	157382
#	181818
#	204420
#
# Disc length: 2909 seconds
#
# Revision: 0
# Processed by: cddbd v1.5.2PL0 Copyright (c) Steve Scherf et al.
# Submitted via: CDex 1.51
#
DISCID=920b5b0a
DTITLE=Jim Stubblefield - Guitarra Exotica
DYEAR=2007
DGENRE=Jazz
TTITLE0=La Selva Negra
TTITLE1=Gitana Mora
TTITLE2=One Quiet Night
TTITLE3=The Mystic's Dream
TTITLE4=Lumiere Du Soleil
TTITLE5=Rumba Arabe
TTITLE6=Eye Of The Sun - Part 1
TTITLE7=Eye Of The Sun - Part 2
TTITLE8=El Vaquero
TTITLE9=A Gypsy's Kiss
EXTD=YEAR: 2007
EXTT0=
EXTT1=
EXTT2=
EXTT3=
EXTT4=
EXTT5=
EXTT6=
EXTT7=
EXTT8=
EXTT9=
PLAYORDER=
